<?xml version="1.0"?>
<svg xmlns="http://www.w3.org/2000/svg" height="512px" viewBox="-112 0 496 496" width="512px"><path d="m256 192h-1.742188c-11.777343-44.390625-50.859374-76.59375-96.640624-79.679688l13.789062-64.320312h76.59375v-48h-96c-11.246094 0-21.121094 7.984375-23.472656 18.976562l-20.128906 93.933594c-43.175782 5.371094-79.398438 36.640625-90.664063 79.089844h-1.734375c-8.824219 0-16 7.175781-16 16v16c0 8.824219 7.175781 16 16 16h8.488281l6.121094 97.921875c-8.578125 3.664063-14.609375 12.175781-14.609375 22.078125v48c0 12.023438 8.910156 21.910156 20.464844 23.640625l2.613281 41.847656c.777344 12.632813 11.304687 22.511719 23.953125 22.511719h145.9375c12.648438 0 23.167969-9.878906 23.953125-22.496094l2.613281-41.855468c11.554688-1.738282 20.464844-11.625 20.464844-23.648438v-48c0-9.902344-6.03125-18.414062-14.609375-22.078125l6.121094-97.921875h8.488281c8.824219 0 16-7.175781 16-16v-16c0-8.824219-7.175781-16-16-16zm-111.832031-169.679688c.792969-3.65625 4.078125-6.320312 7.832031-6.320312h80v16h-73.527344l-17.136718 80h-16.375zm-22.582031 105.679688h28.828124c40.136719 0 75.328126 26.398438 87.21875 64h-203.265624c11.890624-37.601562 47.089843-64 87.21875-64zm-89.585938 280v-48c0-4.414062 3.585938-8 8-8h60.441406l57.597656 64h-118.039062c-4.414062 0-8-3.585938-8-8zm40.726562-72c4.464844-27.089844 31.097657-48 63.273438-48s58.808594 20.910156 63.273438 48h-34.585938l-30.0625 30.0625-27.066406-30.0625zm136.242188 144h-145.9375c-4.214844 0-7.726562-3.289062-7.984375-7.503906l-2.535156-40.496094h166.96875l-2.527344 40.503906c-.257813 4.207032-3.769531 7.496094-7.984375 7.496094zm31.03125-72c0 4.414062-3.585938 8-8 8h-52.441406l-34.222656-38.023438 25.976562-25.976562h60.6875c4.414062 0 8 3.585938 8 8zm-14.519531-72h-10.007813c-4.441406-35.945312-38.375-64-79.472656-64s-75.03125 28.054688-79.472656 64h-10.007813l-6-96h190.96875zm30.519531-112h-240l-.007812-16h240.007812zm0 0" fill="#FFFFFF"/></svg>
