<svg height="512pt" viewBox="0 -7 512 512" width="512pt" xmlns="http://www.w3.org/2000/svg"><g fill-rule="evenodd"><path d="m236.84375 207.695312c35.757812 0 64.921875-29.164062 64.921875-64.917968 0-35.757813-29.164063-64.921875-64.921875-64.921875s-64.917969 29.164062-64.917969 64.921875c0 35.753906 29.160157 64.917968 64.917969 64.917968zm0 0" fill="#ffd777"/><path d="m94.523438 118.066406c3.160156-2.34375 6.675781-4.605468 10.535156-6.832031 3.855468-2.226563 7.574218-4.140625 11.183594-5.707031 14.164062-6.152344 26.628906-6.929688 39.097656-.066406 6.597656-5.761719 10.765625-14.230469 10.765625-23.679688-.003907-15.089844-10.636719-27.695312-24.820313-30.734375 4.460938-13.800781-1.136718-29.3125-14.207031-36.859375s-29.304687-4.636719-39.027344 6.125c-9.722656-10.761719-25.957031-13.671875-39.027343-6.125-13.070313 7.546875-18.667969 23.058594-14.207032 36.859375-14.179687 3.039063-24.816406 15.644531-24.816406 30.734375s10.636719 27.695312 24.820312 30.734375c-4.460937 13.804687 1.136719 29.316406 14.207032 36.859375 8.179687 4.726562 17.597656 5.351562 25.886718 2.519531.292969-14.226562 7.195313-24.636719 19.609376-33.828125zm0 0" fill="#a6f074"/><path d="m394.503906 131.6875c-9.75-7.191406-23.226562-8.375-34.386718-1.929688-12.859376 7.421876-19.777344 20.796876-15.753907 34.367188.003907 0 .003907.003906.003907.003906.070312.222656.140624.449219.207031.671875 1.777343 5.972657 1.789062 12.464844-.199219 18.617188 14.183594 3.039062 24.820312 15.644531 24.820312 30.734375 0 4.328125-.878906 8.453125-2.460937 12.203125h91.152344c11.339843-4.746094 19.308593-15.941407 19.308593-29.003907 0-15.089843-10.636718-27.695312-24.820312-30.734374 4.460938-13.800782-1.136719-29.316407-14.207031-36.859376-1.429688-.824218-2.894531-1.527343-4.386719-2.105468-12.152344-4.710938-25.976562-1.355469-34.640625 8.230468-1.417969-1.566406-2.972656-2.96875-4.636719-4.195312zm0 0" fill="#a6f074"/><path d="m344.363281 164.125c-2.113281-6.5625-6.382812-12.453125-12.492187-16.511719-.554688-.367187-1.121094-.71875-1.703125-1.054687-8.402344-4.855469-18.117188-5.382813-26.566407-2.28125-4.6875 1.722656-8.988281 4.566406-12.460937 8.40625-9.722656-10.765625-25.957031-13.671875-39.023437-6.125-13.070313 7.542968-18.667969 23.054687-14.207032 36.859375-7.878906 1.6875-14.664062 6.328125-19.136718 12.707031-3.582032 5.105469-5.683594 11.320312-5.683594 18.027344 0 4.328125.875 8.453125 2.460937 12.203125h151.183594c2.332031-5.523438 2.949219-11.296875 2.132813-16.769531-.863282-5.757813-3.3125-11.183594-7.023438-15.632813-.007812-.011719-.015625-.019531-.023438-.03125-4.410156-5.238281-10.503906-9.019531-17.445312-10.503906 1.988281-6.152344 1.976562-12.644531.199219-18.617188-.074219-.226562-.144531-.449219-.210938-.675781zm0 0" fill="#dcffb6"/><path d="m203.699219 391.820312c28.484375 7.605469 60.140625.238282 82.492187-22.109374 22.351563-22.351563 29.71875-54.007813 22.109375-82.496094-28.488281-7.605469-60.140625-.238282-82.492187 22.113281-22.347656 22.347656-29.71875 54.003906-22.109375 82.492187zm0 0" fill="#a6f074"/><path d="m203.699219 391.820312c-7.609375-28.488281-.238281-60.144531 22.109375-82.492187 22.351562-22.351563 54.003906-29.71875 82.492187-22.113281 7.609375 28.488281.238281 60.144531-22.109375 82.496094-22.351562 22.347656-54.003906 29.714843-82.492187 22.109374zm152.09375 59.4375c86.136719-38.273437 146.207031-124.566406 146.207031-224.898437h-492c0 100.332031 60.074219 186.621094 146.207031 224.898437 2.898438-1.640624 6.242188-2.578124 9.792969-2.578124h180c3.550781 0 6.894531.9375 9.792969 2.578124zm0 0" fill="#f7f7f7"/><path d="m35.082031 226.359375h70.378907c-3.308594-5.464844-6.65625-11.128906-10.050782-17.007813-7.714844-13.363281-13.144531-24.820312-16.472656-34.792968-28.253906 7.417968-46.253906 27.78125-43.855469 51.800781zm0 0" fill="#dcffb6"/><path d="m95.410156 209.351562c3.394532 5.878907 6.742188 11.542969 10.050782 17.007813h110.085937c-1.582031-3.753906-2.457031-7.878906-2.457031-12.207031 0-6.707032 2.101562-12.921875 5.679687-18.027344-7.152343-14.386719-14.3125-27.550781-23.917969-44.1875-14.335937-24.832031-26.925781-39.546875-39.511718-46.476562-12.464844-6.863282-24.933594-6.085938-39.097656.066406-3.609376 1.566406-7.328126 3.480468-11.183594 5.707031-3.859375 2.226563-7.375 4.488281-10.535156 6.832031-12.414063 9.191406-19.316407 19.601563-19.609376 33.828125-.132812 6.636719 1.167969 14.101563 4.027344 22.664063 3.324219 9.972656 8.753906 21.429687 16.46875 34.792968zm0 0" fill="#ff836c"/><path d="m360.683594 22.859375-59.53125 103.113281c1.558594 5.660156 2.417968 11.769532 2.449218 18.304688 8.449219-3.101563 18.160157-2.574219 26.566407 2.28125 1.347656.777344 2.613281 1.636718 3.800781 2.574218l61.355469-106.273437c15.125-26.195313-18.726563-47.566406-34.640625-20zm0 0" fill="#ff836c"/><path d="m446.25 70.351562-32.59375 56.453126c7.945312-2.316407 16.78125-1.511719 24.511719 2.953124 5.535156 3.195313 9.726562 7.820313 12.386719 13.136719l30.335937-52.542969c15-25.984374-20.253906-44.921874-34.640625-20zm0 0" fill="#ff836c"/><path d="m346 448.679688h-180c-3.550781 0-6.894531.9375-9.792969 2.578124-6.078125 3.441407-10.207031 9.972657-10.207031 17.421876 0 11 9 20 20 20h180c11 0 20-9 20-20 0-7.449219-4.128906-13.980469-10.207031-17.421876-2.898438-1.640624-6.242188-2.578124-9.792969-2.578124zm0 0" fill="#c1c1c1"/></g><path d="m512 226.359375c0-5.523437-4.476562-10-10-10h-19.402344c2.964844-5.753906 4.597656-12.234375 4.597656-19.003906 0-16.070313-9.429687-30.511719-23.429687-37.3125.398437-5.574219-.367187-11.125-2.136719-16.328125l27.921875-48.363282c10.519531-18.222656 3.089844-35.222656-9.6875-42.597656-12.726562-7.347656-31.867187-5.429687-42.273437 12.597656l-30.769532 53.292969c-2.679687 1.082031-5.253906 2.449219-7.679687 4.085938-10.292969-6.964844-23.34375-8.953125-35.273437-5.386719l40.117187-69.484375c10.8125-18.722656 3.085937-36.652344-9.667969-44.015625-12.746094-7.363281-31.367187-4.90625-42.292968 14.015625l-49.714844 86.109375c-1.964844-3.144531-4.160156-6.152344-6.613282-8.996094-10.433593-12.078125-25.082031-20.855468-41.25-24.714844-5.375-1.285156-10.769531 2.03125-12.050781 7.402344-1.28125 5.375 2.03125 10.769532 7.402344 12.050782 16.226563 3.875 34.679687 15.820312 41.285156 37.4375.109375 1.136718.410157 2.246093.894531 3.28125.589844 2.46875 1.03125 5.054687 1.304688 7.761718-.726562.425782-1.441406.867188-2.140625 1.339844-12.890625-8.722656-30.109375-9.667969-44.027344-1.632812-13.914062 8.03125-21.703125 23.417968-20.597656 38.945312-1.707031.828125-3.347656 1.777344-4.910156 2.824219-5.253907-10.058594-10.980469-20.40625-18.097657-32.730469-6.15625-10.667969-12.042968-19.597656-17.820312-26.992188.980469-2.117187 2.050781-4.15625 3.21875-6.082031 2.863281-4.722656 1.359375-10.871093-3.363281-13.734375-4.71875-2.867187-10.871094-1.363281-13.734375 3.359375-.195313.320313-.375.660157-.566406.984375-.417969-.359375-.835938-.707031-1.257813-1.054687 3.953125-6.449219 6.117187-13.917969 6.117187-21.636719 0-16.066406-9.429687-30.507812-23.429687-37.3125 1.109375-15.523438-6.679687-30.910156-20.597656-38.945312-13.914063-8.03125-31.132813-7.085938-44.023438 1.636718-12.890625-8.722656-30.109375-9.667968-44.023437-1.632812-13.914063 8.035156-21.707032 23.417968-20.597656 38.945312-14.003907 6.800782-23.429688 21.242188-23.429688 37.308594s9.429688 30.507812 23.429688 37.3125c-1.109376 15.523438 6.683593 30.910156 20.597656 38.945312 6.363281 3.675782 13.511718 5.546876 20.707031 5.546876.363281 0 .726563-.011719 1.089844-.019532.242187 1.457032.539062 2.945313.878906 4.460938-23.6875 9.183594-39.117187 27.238281-41.5 48.332031h-15.203125c-5.523438 0-10 4.476563-10 10 0 96.453125 54.359375 184.5 139.613281 228.054687-2.300781 4.246094-3.613281 9.105469-3.613281 14.265626 0 16.539062 13.457031 30 30 30h180c16.542969 0 30-13.460938 30-30 0-5.160157-1.308594-10.019532-3.613281-14.265626 85.253906-43.554687 139.613281-131.601562 139.613281-228.054687zm-57.089844-151.007813c4.445313-7.699218 10.832032-7.652343 14.953125-5.277343 1.96875 1.140625 7.953125 5.597656 2.367188 15.277343l-23.085938 39.984376c-1.84375-1.5625-3.828125-2.996094-5.976562-4.238282-3.8125-2.199218-7.875-3.703125-12.027344-4.582031zm-63.191406 67.234376c1.898438 2.101562 4.59375 3.300781 7.421875 3.300781s5.527344-1.199219 7.421875-3.296875c6.71875-7.441406 17.90625-9.195313 26.605469-4.171875 8.695312 5.019531 12.773437 15.589843 9.691406 25.125-.871094 2.691406-.558594 5.625.855469 8.074219 1.414062 2.453124 3.800781 4.1875 6.5625 4.78125 9.800781 2.097656 16.914062 10.910156 16.914062 20.953124 0 8.058594-4.46875 15.332032-11.523437 19.003907h-76.535157c.039063-.730469.058594-1.464844.058594-2.203125 0-16.066406-9.425781-30.507813-23.425781-37.308594.332031-4.667969-.15625-9.316406-1.351563-13.761719-.082031-.453125-.179687-.90625-.324218-1.355469-2.804688-8.675781 1.523437-17.824218 11.027344-23.308593 8.695312-5.019531 19.886718-3.265625 26.601562 4.167969zm-22.375-114.726563c4.898438-8.480469 10.945312-9.015625 14.972656-6.695313 4.476563 2.585938 6.9375 8.75 2.347656 16.695313l-56.378906 97.652344c-5.648437-2.324219-11.65625-3.335938-17.589844-3.074219-.25-1.660156-.535156-3.300781-.886718-4.921875zm-129.339844 165.335937c2.765625-.589843 5.152344-2.328124 6.566406-4.777343 1.414063-2.449219 1.722657-5.382813.851563-8.074219-3.082031-9.535156.996094-20.105469 9.691406-25.125 8.703125-5.023438 19.890625-3.269531 26.605469 4.167969 1.898438 2.101562 4.59375 3.296875 7.421875 3.296875s5.523437-1.195313 7.421875-3.296875c6.714844-7.4375 17.90625-9.191407 26.605469-4.167969 8.695312 5.019531 12.773437 15.589844 9.691406 25.125-.871094 2.691406-.558594 5.625.855469 8.074219 1.414062 2.449219 3.796875 4.1875 6.5625 4.777343 9.800781 2.101563 16.914062 10.914063 16.914062 20.957032 0 .742187-.039062 1.476562-.113281 2.203125h-62.617187l.042968-.125c1.851563-5.203125-.863281-10.921875-6.066406-12.773438-5.199219-1.851562-10.921875.863281-12.773438 6.066407l-2.433593 6.832031h-52.027344c-.074219-.726563-.113281-1.460938-.113281-2.203125 0-10.042969 7.113281-18.855469 16.914062-20.957032zm-45.214844-21.105468-11.851562 6.839844c-4.785156 2.761718-6.425781 8.878906-3.664062 13.660156 1.855468 3.210937 5.214843 5.003906 8.671874 5.003906 1.695313 0 3.414063-.433594 4.992188-1.34375l11.34375-6.550781c1.066406 2.050781 2.117188 4.09375 3.152344 6.132812-2.773438 5.578125-4.34375 11.808594-4.34375 18.320313 0 .738281.019531 1.472656.058594 2.203125h-92.03125c-2.339844-3.925781-4.703126-7.941407-7.046876-12.003907-7.628906-13.214843-12.71875-24.082031-15.722656-33.164062-.019531-.050781-.03125-.109375-.050781-.160156-7.695313-23.390625-1.503906-34.886719 10.773437-44.078125.171876-.089844.351563-.164063.523438-.261719.722656-.425781 1.363281-.9375 1.9375-1.5 2.636719-1.808594 5.496094-3.546875 8.527344-5.292969 15.890625-9.175781 26.945312-11.371093 36.964844-7.339843 11.871093 4.773437 24.679687 19.292968 39.167968 44.382812 3.113282 5.394531 5.949219 10.390625 8.597656 15.152344zm-140.761718-31.371094c-8.699219-5.023438-12.773438-15.589844-9.691406-25.125.867187-2.691406.558593-5.628906-.855469-8.078125-1.414063-2.449219-3.800781-4.183594-6.566407-4.777344-9.800781-2.097656-16.914062-10.914062-16.914062-20.957031s7.113281-18.855469 16.914062-20.957031c2.765626-.589844 5.152344-2.324219 6.566407-4.777344 1.414062-2.449219 1.722656-5.382813.851562-8.074219-3.082031-9.535156.996094-20.101562 9.691407-25.125 8.699218-5.019531 19.890624-3.269531 26.605468 4.167969 1.898438 2.101563 4.59375 3.296875 7.421875 3.296875s5.527344-1.195312 7.421875-3.296875c6.71875-7.4375 17.90625-9.1875 26.605469-4.167969 8.695313 5.023438 12.773437 15.589844 9.691406 25.125-.871093 2.691406-.5625 5.625.851563 8.074219 1.414062 2.453125 3.800781 4.1875 6.566406 4.777344 9.800781 2.101562 16.914062 10.914062 16.914062 20.957031 0 4.136719-1.199218 8.136719-3.390624 11.550781-11.03125-3.949219-21.636719-3.199219-31.289063-.371093-2.832031-7.46875-4.757813-16.492188-3.867187-23.398438.703124-5.476562-3.167969-10.488281-8.644532-11.191406-5.46875-.703125-10.488281 3.164062-11.191406 8.640625-1.410156 10.960937 1.269531 23.59375 5.3125 33.886719-1.011719.554687-2.003906 1.117187-2.976562 1.675781-.972657.5625-1.953126 1.144531-2.941407 1.742187-6.890625-8.648437-16.492187-17.285156-26.6875-21.546875-5.09375-2.128906-10.953125.273438-13.082031 5.371094s.273438 10.953125 5.371094 13.082031c6.425781 2.683594 13.277344 8.863282 18.328125 15.050782-7.273438 6.945312-13.222657 15.753906-15.324219 27.285156-4.046875.183594-8.109375-.773438-11.691406-2.839844zm18.921875 46.320312c3.445312 8.265626 8.023437 17.300782 13.800781 27.3125.390625.671876.777344 1.335938 1.164062 2.007813h-42.503906c2.339844-12.535156 12.285156-23.179687 27.539063-29.320313zm282.769531 253.261719c-3.050781-1.046875-6.316406-1.621093-9.71875-1.621093-5.523438 0-10 4.476562-10 10 0 5.519531 4.476562 10 10 10 5.515625 0 10 4.484374 10 10 0 5.511718-4.484375 10-10 10h-180c-5.515625 0-10-4.488282-10-10 0-3.769532 2.097656-7.058594 5.1875-8.761719.027344-.015625.054688-.03125.082031-.046875 1.40625-.757813 3.019531-1.191406 4.730469-1.191406h100c5.523438 0 10-4.480469 10-10 0-5.523438-4.476562-10-10-10h-100c-3.402344 0-6.667969.574218-9.71875 1.621093-79.910156-37.292969-132.351562-116.171875-136.070312-203.941406h14.820312.039062.039063 70.3125.046875.042969 109.96875.125 66.585937c.03125 0 .0625.003906.089844.003906.035156 0 .066406-.003906.101562-.003906h84.265626c.027343 0 .054687.003906.082031.003906.015625 0 .035156-.003906.050781-.003906h91.058594c.015625 0 .035156.003906.050781.003906.027344 0 .054687-.003906.082031-.003906h33.816406c-3.71875 87.769531-56.15625 166.648437-136.070312 203.941406zm0 0"/><path d="m134.003906 176.507812-7.84375 4.527344c-4.78125 2.757813-6.421875 8.875-3.660156 13.660156 1.851562 3.207032 5.214844 5 8.671875 5 1.695313 0 3.414063-.433593 4.988281-1.339843l7.839844-4.527344c4.785156-2.761719 6.421875-8.878906 3.664062-13.660156-2.761718-4.78125-8.878906-6.421875-13.660156-3.660157zm0 0"/><path d="m140.371094 132.203125-10.144532 5.855469c-4.78125 2.761718-6.421874 8.878906-3.660156 13.660156 1.851563 3.210938 5.214844 5.003906 8.671875 5.003906 1.695313 0 3.414063-.433594 4.988281-1.34375l10.144532-5.855468c4.785156-2.761719 6.421875-8.875 3.660156-13.660157-2.761719-4.78125-8.878906-6.421875-13.660156-3.660156zm0 0"/><path d="m393.320312 207.871094c1.511719.820312 3.144532 1.207031 4.753907 1.207031 3.550781 0 6.988281-1.894531 8.800781-5.238281l7.800781-14.398438c2.628907-4.855468.824219-10.925781-4.03125-13.554687-4.855469-2.632813-10.925781-.828125-13.554687 4.027343l-7.800782 14.398438c-2.628906 4.855469-.824218 10.925781 4.03125 13.558594zm0 0"/><path d="m310.882812 277.554688c-32.832031-8.769532-68.140624.699218-92.144531 24.699218-24.003906 24.003906-33.46875 59.3125-24.703125 92.148438.921875 3.457031 3.625 6.15625 7.082032 7.082031 8.097656 2.160156 16.34375 3.214844 24.53125 3.214844 25.027343 0 49.527343-9.832031 67.613281-27.917969 24.003906-24.003906 33.46875-59.3125 24.703125-92.144531-.921875-3.457031-3.625-6.160157-7.082032-7.082031zm-9.710937 30.933593c.070313 7.128907-.867187 14.210938-2.761719 21.03125h-18.265625zm-14.140625-14.144531-36.449219 36.453125v-27.507813c11.179688-5.972656 23.738281-9.0625 36.449219-8.945312zm-56.449219 24.472656v31.980469l-19.753906 19.75c-.175781-18.933594 6.769531-37.535156 19.753906-51.730469zm-5.613281 65.875 35.171875-35.171875h29.429687c-2.953124 4.703125-6.441406 9.109375-10.449218 13.117188-14.464844 14.464843-34.121094 22.242187-54.152344 22.054687zm0 0"/><path d="m306.003906 438.679688h-.007812c-5.523438 0-9.996094 4.476562-9.996094 10 0 5.519531 4.480469 10 10.003906 10 5.523438 0 10-4.480469 10-10 0-5.523438-4.476562-10-10-10zm0 0"/><path d="m211.503906 92.386719c1.238282 0 2.496094-.230469 3.714844-.714844 5.125-2.054687 7.621094-7.871094 5.570312-13-2.050781-5.128906-7.871093-7.621094-13-5.570313h-.007812c-5.125 2.054688-7.617188 7.871094-5.566406 13 1.566406 3.910157 5.320312 6.285157 9.289062 6.285157zm0 0"/></svg>